<svg width="92" height="79" viewBox="0 0 92 79" fill="none" xmlns="http://www.w3.org/2000/svg">
<path d="M10.0112 45.8362L1.34012 44.8471L1.7006 41.8173C1.77243 41.2136 1.9361 40.7276 2.19163 40.3593C2.44434 39.9907 2.7571 39.7305 3.12993 39.5786C3.49993 39.4263 3.89663 39.3744 4.32002 39.4227C4.6926 39.4652 4.99238 39.5665 5.21935 39.7268C5.44665 39.8843 5.61812 40.0783 5.73374 40.3088C5.84969 40.5364 5.92678 40.7783 5.96498 41.0342L6.04966 41.0439C6.09815 40.7806 6.22301 40.5247 6.42425 40.276C6.6255 40.0273 6.89492 39.8308 7.23254 39.6863C7.57015 39.5418 7.96759 39.4956 8.42485 39.5478C8.85953 39.5974 9.23871 39.7407 9.5624 39.9778C9.88608 40.2148 10.1242 40.558 10.2767 41.0071C10.4293 41.4563 10.4649 42.0222 10.3837 42.7049L10.0112 45.8362ZM9.20456 44.6805L9.45226 42.5986C9.53383 41.9131 9.45906 41.4114 9.22797 41.0933C8.9944 40.7722 8.68708 40.5899 8.30603 40.5464C8.01248 40.5129 7.73261 40.5568 7.46644 40.678C7.19744 40.7988 6.97169 40.9889 6.7892 41.2483C6.60388 41.5074 6.48874 41.826 6.44376 42.204L6.19002 44.3367L9.20456 44.6805ZM5.27549 44.2323L5.50709 42.2858C5.54468 41.9699 5.51648 41.6779 5.4225 41.4098C5.32884 41.1389 5.17801 40.9159 4.96999 40.7406C4.76231 40.5625 4.50604 40.4561 4.2012 40.4213C3.82015 40.3778 3.48119 40.4736 3.18431 40.7085C2.88461 40.943 2.70053 41.3481 2.63206 41.9236L2.39644 43.9039L5.27549 44.2323Z" fill="black"/>
<path d="M12.6425 34.8298C12.4175 35.377 12.0889 35.8069 11.6567 36.1194C11.2256 36.4293 10.7266 36.6097 10.1598 36.6606C9.59397 36.7088 8.99573 36.6121 8.36506 36.3706C7.72909 36.127 7.221 35.8 6.84078 35.3894C6.46165 34.9762 6.2253 34.5142 6.13172 34.0034C6.03922 33.4899 6.10548 32.9595 6.33049 32.4123C6.5555 31.8651 6.88356 31.4366 7.31466 31.1267C7.74683 30.8141 8.24715 30.6342 8.81559 30.587C9.38512 30.5372 9.98787 30.6341 10.6238 30.8776C11.2545 31.1192 11.7581 31.446 12.1346 31.8582C12.5121 32.2677 12.7472 32.7292 12.8397 33.2427C12.9332 33.7536 12.8675 34.2826 12.6425 34.8298ZM11.7998 34.5071C11.9708 34.0914 12.0041 33.7083 11.8998 33.3578C11.7955 33.0072 11.5949 32.7005 11.2982 32.4377C11.0014 32.1748 10.649 31.9652 10.2409 31.8089C9.8328 31.6526 9.42604 31.5714 9.0206 31.5654C8.61516 31.5593 8.24862 31.6488 7.92099 31.8339C7.59335 32.019 7.34408 32.3194 7.17315 32.7351C7.00223 33.1507 6.97024 33.5343 7.07719 33.8859C7.18414 34.2374 7.38733 34.5452 7.68675 34.809C7.98618 35.0729 8.33993 35.283 8.74801 35.4393C9.1561 35.5956 9.56153 35.6763 9.96433 35.6814C10.3671 35.6864 10.731 35.5959 11.056 35.4098C11.381 35.2236 11.6289 34.9227 11.7998 34.5071Z" fill="black"/>
<path d="M15.648 24.6222L12.5076 22.3754L13.1242 21.5782L18.4366 25.379L17.82 26.1761L16.9207 25.5328L16.8789 25.5868C17.0546 25.9014 17.1377 26.2547 17.1282 26.6467C17.1164 27.0371 16.959 27.4282 16.6559 27.82C16.405 28.1443 16.1094 28.3806 15.7691 28.5288C15.4264 28.6755 15.0518 28.7153 14.6452 28.6483C14.2363 28.5796 13.8059 28.3836 13.3539 28.0602L9.97836 25.6452L10.595 24.848L13.9152 27.2235C14.3026 27.5006 14.6934 27.6158 15.0877 27.5691C15.4838 27.5201 15.8098 27.3301 16.0659 26.9991C16.2192 26.8009 16.3232 26.5623 16.3779 26.2831C16.4344 26.0017 16.4095 25.7145 16.303 25.4214C16.1983 25.1262 15.98 24.8597 15.648 24.6222Z" fill="black"/>
<path d="M20.3149 15.3118L20.8559 15.9677L18.1476 18.0236L17.6067 17.3677L20.3149 15.3118ZM17.4006 15.5616L18.2036 14.9521L22.1635 19.7533C22.3438 19.9719 22.5119 20.1109 22.6679 20.1703C22.8243 20.2258 22.97 20.2325 23.105 20.1905C23.2404 20.1445 23.3671 20.0768 23.4851 19.9872C23.5735 19.9201 23.6425 19.8606 23.692 19.8088C23.7397 19.7548 23.7778 19.7116 23.8065 19.6793L24.5432 20.2505C24.505 20.3115 24.4452 20.3889 24.3639 20.4826C24.2844 20.5785 24.1698 20.6833 24.0201 20.7969C23.7933 20.9691 23.5322 21.0909 23.237 21.1622C22.9439 21.2317 22.6466 21.2246 22.345 21.1406C22.0457 21.055 21.7753 20.8657 21.5336 20.5727L17.4006 15.5616Z" fill="black"/>
<path d="M27.6547 9.01171L28.8866 11.7401L28.0183 12.0986L26.7864 9.37024L27.6547 9.01171Z" fill="black"/>
<path d="M39.774 7.2825L39.9046 8.12363L36.4057 8.60959L36.2751 7.76846L39.774 7.2825ZM38.3258 14.0828L37.1847 6.73131C37.1273 6.36121 37.1667 6.04066 37.3031 5.76967C37.4395 5.49868 37.6375 5.28214 37.8973 5.12004C38.157 4.95793 38.4418 4.85536 38.7517 4.81232C38.9968 4.77828 39.1999 4.77013 39.3609 4.78786C39.522 4.8056 39.6431 4.826 39.7244 4.84908L39.5702 5.74695C39.5169 5.73717 39.4432 5.72592 39.3492 5.71321C39.2579 5.7001 39.1404 5.70353 38.9968 5.72348C38.6672 5.76926 38.4419 5.88504 38.3211 6.0708C38.2031 6.25618 38.1689 6.50868 38.2185 6.82831L39.3231 13.9443L38.3258 14.0828Z" fill="black"/>
<path d="M47.457 13.8564L48.2303 7.35677L49.2295 7.47074L48.4562 13.9704L47.457 13.8564ZM48.8673 6.33145C48.6725 6.30924 48.5124 6.22379 48.3871 6.0751C48.2646 5.92673 48.2144 5.75946 48.2365 5.57327C48.2587 5.38709 48.3468 5.23559 48.5009 5.11878C48.6578 5.00229 48.8336 4.95515 49.0284 4.97737C49.2231 4.99958 49.3818 5.08487 49.5043 5.23324C49.6297 5.38192 49.6813 5.54936 49.6591 5.73555C49.637 5.92173 49.5474 6.07307 49.3905 6.18956C49.2364 6.30637 49.062 6.35367 48.8673 6.33145Z" fill="black"/>
<path d="M57.0444 16.2979C56.472 16.0787 56.0343 15.7558 55.7313 15.3291C55.4283 14.9024 55.2623 14.411 55.2333 13.8549C55.2044 13.2987 55.3143 12.7181 55.5631 12.113C55.8162 11.4975 56.1536 10.9979 56.5751 10.6142C57.0004 10.229 57.473 9.98218 57.993 9.87379C58.5167 9.76378 59.0542 9.81432 59.6053 10.0254C60.0346 10.1898 60.389 10.4169 60.6686 10.7067C60.9482 10.9965 61.1395 11.3256 61.2427 11.6939C61.3458 12.0623 61.3459 12.446 61.2431 12.8451L60.3051 12.4859C60.3471 12.1822 60.2887 11.8767 60.1299 11.5692C59.9748 11.2601 59.6906 11.0264 59.2772 10.8681C58.9115 10.728 58.552 10.6999 58.1985 10.7838C57.8487 10.866 57.5267 11.0487 57.2324 11.3319C56.9418 11.6134 56.7024 11.983 56.5141 12.4408C56.3216 12.909 56.2281 13.3452 56.2337 13.7493C56.2419 14.1544 56.3431 14.5052 56.537 14.8018C56.7336 15.0994 57.0174 15.3193 57.3884 15.4613C57.6322 15.5547 57.8708 15.5974 58.1041 15.5893C58.3375 15.5812 58.5555 15.5247 58.7582 15.4196C58.9609 15.3145 59.1369 15.1627 59.286 14.964L60.2241 15.3233C60.024 15.6608 59.7603 15.9328 59.433 16.1394C59.1095 16.3443 58.7422 16.4655 58.3311 16.503C57.9238 16.5388 57.4949 16.4704 57.0444 16.2979Z" fill="black"/>
<path d="M64.0911 21.2102C63.5792 20.844 63.223 20.4178 63.0225 19.9315C62.826 19.4446 62.7816 18.9301 62.8893 18.388C63.0011 17.8453 63.2625 17.3082 63.6736 16.7768C64.0847 16.2453 64.5462 15.8479 65.058 15.5844C65.5739 15.3203 66.0985 15.2024 66.6318 15.2306C67.1691 15.2583 67.6776 15.4437 68.1572 15.7868C68.4339 15.9847 68.6723 16.2253 68.8724 16.5083C69.0725 16.7914 69.2048 17.1135 69.2694 17.4745C69.3357 17.8333 69.3066 18.2252 69.1819 18.6503C69.0573 19.0754 68.8077 19.53 68.4332 20.0141L68.1719 20.3519L64.077 17.4222L64.61 16.7331L67.8749 19.069C68.1013 18.7762 68.2435 18.4721 68.3012 18.1566C68.3613 17.8428 68.3332 17.5411 68.2169 17.2515C68.103 16.9636 67.8984 16.714 67.6033 16.5029C67.2782 16.2703 66.9359 16.1479 66.5765 16.1356C66.2211 16.1227 65.8834 16.1959 65.5632 16.3551C65.243 16.5143 64.9723 16.737 64.7511 17.023L64.3958 17.4823C64.0927 17.8742 63.9049 18.2558 63.8325 18.6273C63.7641 18.9981 63.7996 19.3436 63.9389 19.6636C64.0799 19.9814 64.3153 20.2582 64.645 20.4941C64.8594 20.6475 65.0757 20.7568 65.2939 20.822C65.5162 20.8866 65.7369 20.9046 65.956 20.8759C66.1769 20.8451 66.3916 20.7643 66.6001 20.6336L67.2215 21.414C66.9364 21.6158 66.6192 21.7457 66.27 21.8037C65.9224 21.8594 65.5619 21.8393 65.1883 21.7434C64.8165 21.6453 64.4507 21.4676 64.0911 21.2102Z" fill="black"/>
<path d="M77.7122 21.9189L70.7442 27.2086L70.1059 26.4346L77.0739 21.1449L77.7122 21.9189Z" fill="black"/>
<path d="M83.3381 31.1684L75.2549 34.506L74.8419 33.5914L82.9251 30.2537L83.3381 31.1684Z" fill="black"/>
<path d="M77.4419 42.3883C77.3453 41.7659 77.4 41.2098 77.606 40.72C77.8153 40.2327 78.1503 39.8324 78.6111 39.5193C79.0752 39.2085 79.6396 39.0069 80.3045 38.9146C80.9693 38.8223 81.574 38.8614 82.1185 39.0321C82.6663 39.2052 83.1162 39.4893 83.4682 39.8844C83.8234 40.2819 84.0463 40.7722 84.1368 41.3554C84.189 41.6918 84.1843 42.0319 84.1225 42.3756C84.0607 42.7193 83.924 43.0433 83.7122 43.3477C83.5032 43.6517 83.2041 43.9123 82.8148 44.1297C82.4255 44.347 81.928 44.4977 81.3223 44.5819L80.8997 44.6406L80.1268 39.6611L80.9888 39.5413L81.6051 43.5115C81.9713 43.4606 82.2868 43.3423 82.5515 43.1566C82.8167 42.9737 83.0117 42.7375 83.1365 42.4481C83.2619 42.1615 83.2967 41.8387 83.2409 41.4798C83.1796 41.0845 83.0279 40.7561 82.7859 40.4947C82.5471 40.2357 82.2594 40.0508 81.9227 39.9401C81.5861 39.8293 81.2389 39.7987 80.8811 39.8484L80.3064 39.9283C79.8162 39.9963 79.4137 40.1382 79.0989 40.3537C78.7874 40.5717 78.5664 40.8444 78.436 41.1719C78.3083 41.499 78.2756 41.863 78.3378 42.2639C78.3783 42.5247 78.4515 42.7551 78.5573 42.9552C78.6665 43.1577 78.8077 43.3257 78.9809 43.4592C79.157 43.5923 79.3642 43.6852 79.6027 43.738L79.4811 44.7345C79.1386 44.6789 78.8249 44.5492 78.54 44.3453C78.2579 44.141 78.0207 43.8732 77.8282 43.5419C77.6386 43.2103 77.5098 42.8257 77.4419 42.3883Z" fill="black"/>
<g filter="url(#filter0_i_8_12)">
<path d="M44.6751 14.4528C43.4657 14.4528 42.4761 16.3176 42.4761 18.6171C42.4761 19.7193 42.7098 20.776 43.1221 21.5542C42.4761 21.5815 41.8852 21.7051 41.2392 21.8704V23.933C43.5894 23.6181 45.9258 23.6324 48.111 23.933V21.8704C47.4926 21.6947 46.8191 21.5958 46.2282 21.5542C46.6405 20.776 46.8741 19.7193 46.8741 18.6171C46.8741 16.3176 45.8846 14.4528 44.6751 14.4528ZM21.3425 23.5999C20.4835 24.4132 21.179 26.3873 22.8955 28.014C23.7298 28.7948 24.6781 29.3934 25.5577 29.6667C25.1179 30.1221 24.788 30.6036 24.4582 31.1502L26.0112 32.6077C27.3719 30.8639 29.0211 29.3023 30.8627 28.014L29.3235 26.5435C28.7462 26.8298 28.224 27.2202 27.7567 27.5845C27.4681 26.7517 26.8359 25.8538 26.0112 25.073C24.9117 24.2649 22.6372 22.4183 21.3425 23.5999ZM63.339 25.0704C62.5144 25.8538 61.8822 26.7517 61.5936 27.5845C61.1125 27.1681 60.604 26.8558 60.0268 26.5435L58.4875 28.014C60.3292 29.3023 61.9784 30.8639 63.339 32.6077L64.8921 31.1502C64.5897 30.6036 64.1774 30.1091 63.7926 29.6667C64.6584 29.3804 65.6067 28.7948 66.4313 28.014C68.1493 26.3873 68.8502 24.4106 67.9844 23.5986C66.6238 22.5744 64.1362 24.3299 63.339 25.0704ZM43.7818 26.049C38.7241 26.2572 34.1337 28.1701 30.6428 31.2022C30.1893 31.6056 29.7358 32.0221 29.3784 32.3995C26.1762 35.7048 24.1558 40.0513 23.9359 44.8532C23.9359 45.4388 23.9085 46.0374 23.9497 46.5449C24.1558 51.3338 26.1762 55.6802 29.3784 58.9856C29.8045 59.402 30.258 59.8314 30.6428 60.1828C34.1337 63.2019 38.7241 65.1148 43.7818 65.323H43.8093C44.3728 65.3491 45.005 65.323 45.5685 65.323C50.6261 65.1148 55.2165 63.2019 58.7074 60.1698C59.1609 59.7664 59.6145 59.3499 59.9718 58.9726C63.1741 55.6672 65.1944 51.3208 65.4143 46.5319V46.5058C65.4418 45.9593 65.4143 45.3737 65.4143 44.8401C65.1944 40.0513 63.1741 35.7048 59.9718 32.3995C59.5458 31.97 59.106 31.5406 58.7074 31.2022C55.2165 28.1701 50.6261 26.2572 45.5685 26.049C44.95 26.0229 44.3178 26.049 43.7818 26.049ZM44.6751 27.4414C45.2798 27.4414 45.7746 27.9099 45.7746 28.4825C45.7746 29.055 45.2798 29.5235 44.6751 29.5235C44.0704 29.5235 43.5756 29.055 43.5756 28.4825C43.5756 27.9099 44.0704 27.4414 44.6751 27.4414ZM45.6234 31.1372C49.1556 31.3454 52.3716 32.6727 54.8729 34.7679C55.3402 35.1713 55.7937 35.5877 56.2061 36.0302C58.4188 38.3986 59.8206 41.4437 60.0405 44.8011C60.0955 45.3997 60.0405 45.9983 60.0405 46.5839C59.8206 49.9283 58.4188 52.9734 56.2061 55.3419C55.78 55.7843 55.3402 56.2137 54.8729 56.6041C52.3716 58.6993 49.1556 60.0266 45.6097 60.2348C44.9775 60.2479 44.3453 60.2869 43.7268 60.2348C40.1947 60.0266 36.9787 58.6993 34.4911 56.6041H34.4773C34.01 56.2137 33.5702 55.7843 33.1579 55.3419C30.9452 52.9865 29.5296 49.9413 29.3097 46.5839C29.296 45.9853 29.2547 45.3997 29.3097 44.8141C29.3784 41.4567 31.1376 38.2424 33.1442 36.0302C33.5702 35.5877 34.01 35.1583 34.4773 34.7679C36.9787 32.6727 40.1947 31.3454 43.7406 31.1372C44.3728 31.0851 45.005 31.1372 45.6234 31.1372ZM32.5944 32.7768C33.0205 33.1802 33.0205 33.8439 32.5944 34.2473C32.1684 34.6507 31.4675 34.6507 31.0414 34.2473C30.6154 33.8439 30.6154 33.1802 31.0414 32.7768C31.5224 32.3995 32.1684 32.3995 32.5944 32.7768ZM58.3088 32.7768C58.7349 33.1802 58.7349 33.8439 58.3088 34.2473C57.8828 34.6507 57.1819 34.6507 56.7558 34.2473C56.3298 33.8439 56.3298 33.1802 56.7558 32.7768C57.2368 32.3995 57.8828 32.3995 58.3088 32.7768ZM42.4761 33.6227V34.7549C42.8197 35.1713 43.0809 35.4706 43.5481 35.6398C43.4519 37.2534 43.3282 38.9061 43.1633 40.5458C44.1804 40.2985 45.2524 40.2855 46.2007 40.5588C46.0357 38.9061 45.8983 37.2534 45.8021 35.6267C46.8879 35.3535 46.8741 34.5076 46.8741 33.6227C45.3623 33.4015 43.878 33.4145 42.4761 33.6227ZM37.2123 35.6788C36.0166 36.4856 34.9584 37.4876 34.1063 38.6198L34.9584 39.4266C35.5081 39.4917 35.9204 39.5307 36.374 39.3355C37.5147 40.5458 38.6554 41.795 39.7686 43.0703C40.2772 42.2245 41.0193 41.5218 41.9264 41.0403C40.5658 39.9862 39.2464 38.9061 37.9682 37.826C38.2156 37.4226 38.1469 36.9541 38.0644 36.4856L37.2123 35.6788ZM52.1379 35.6788L51.2858 36.4856C51.1896 37.0062 51.1759 37.3835 51.3683 37.826C50.1039 38.9061 48.7707 39.9862 47.4239 41.0403C48.3172 41.5218 49.0594 42.2245 49.5679 43.0833C50.6811 41.795 51.8356 40.5458 52.9626 39.3355C53.4024 39.5568 53.8834 39.5047 54.3782 39.4266L55.2303 38.6198C54.3782 37.4876 53.3336 36.4856 52.1379 35.6788ZM67.6408 42.4327C67.9844 44.658 67.9569 46.8702 67.6408 48.9393H69.826C70.0322 48.3537 70.1009 47.7161 70.1421 47.1565C70.9668 47.5469 72.0937 47.7681 73.2619 47.7681C75.6946 47.7681 77.6599 46.8312 77.6599 45.686C77.6599 44.5408 75.6946 43.6039 73.2619 43.6039C72.0937 43.6039 70.9668 43.8251 70.1421 44.2155C70.1284 43.6039 70.0047 43.0443 69.826 42.4327H67.6408ZM19.5283 42.4457C19.3428 43.0313 19.2384 43.6429 19.1985 44.2155C18.3711 43.8251 17.2538 43.6169 16.0924 43.6169C13.6639 43.6169 11.6945 44.5539 11.6945 45.699C11.6945 46.8442 13.6639 47.7811 16.0924 47.7811C17.2579 47.7811 18.3753 47.5599 19.1985 47.1695C19.2191 47.7811 19.3524 48.3407 19.5283 48.9523H21.6998C21.3727 46.7271 21.3563 44.5148 21.6998 42.4457H19.5283ZM44.6751 42.693C42.9022 42.693 41.5141 44.0203 41.5141 45.686C41.5141 47.3517 42.9022 48.6791 44.6751 48.6791C46.4343 48.6791 47.8362 47.3517 47.8362 45.686C47.8362 44.0203 46.4343 42.693 44.6751 42.693ZM56.2198 43.6039C55.78 43.9292 55.4639 44.1765 55.2852 44.6189C53.581 44.5278 51.8356 44.4107 50.1039 44.2545C50.365 45.2305 50.365 46.2326 50.1039 47.1305C51.8356 46.9743 53.5673 46.8442 55.2852 46.7531C55.4227 47.2086 55.8075 47.4949 56.2198 47.7681H57.4155C57.6491 46.3367 57.6354 44.9312 57.4155 43.6039H56.2198ZM31.9348 43.6169C31.7011 45.0353 31.7286 46.4538 31.9348 47.7811H33.1304C33.5565 47.4558 33.9001 47.2216 34.0513 46.7661C35.7692 46.8442 37.5009 46.9743 39.2464 47.1305C38.9715 46.1545 38.9715 45.1525 39.2326 44.2545C37.5009 44.4107 35.7555 44.5278 34.0513 44.6189C33.9276 44.1635 33.529 43.8772 33.1304 43.6169H31.9348ZM62.8442 44.6449C63.449 44.6449 63.9437 45.1134 63.9437 45.686C63.9437 46.2586 63.449 46.7271 62.8442 46.7271C62.2395 46.7271 61.7448 46.2586 61.7448 45.686C61.7448 45.1134 62.2395 44.6449 62.8442 44.6449ZM26.506 44.658C27.1107 44.658 27.6055 45.1264 27.6055 45.699C27.6055 46.2716 27.1107 46.7401 26.506 46.7401C25.9013 46.7401 25.4065 46.2716 25.4065 45.699C25.4065 45.1264 25.9013 44.658 26.506 44.658ZM49.5816 48.3017C49.0731 49.1475 48.3309 49.8503 47.4239 50.3317C48.7845 51.3858 50.1039 52.4659 51.382 53.546C51.1346 53.9494 51.2034 54.4179 51.2858 54.8864L52.1379 55.6932C53.3336 54.8864 54.3919 53.8844 55.244 52.7522L54.3919 51.9454C53.8422 51.8803 53.4298 51.8413 52.9763 52.0365C51.8356 50.8262 50.6949 49.577 49.5816 48.3017ZM39.7686 48.3017C38.6554 49.577 37.5147 50.8262 36.374 52.0365C35.9479 51.8022 35.4531 51.8673 34.9721 51.9454L34.1063 52.7522C34.9584 53.8974 36.0166 54.8994 37.2261 55.6932L38.0782 54.8864C38.1469 54.3659 38.1881 53.9755 37.982 53.546C39.2601 52.4659 40.5795 51.3858 41.9264 50.3317C41.0331 49.8503 40.2772 49.1475 39.7686 48.3017ZM43.1496 50.8132C43.3145 52.4659 43.4519 54.1186 43.5481 55.7453C43.0671 55.8494 42.751 56.2398 42.4761 56.6172V57.7493C43.9879 57.9705 45.4723 57.9575 46.8741 57.7493V56.6172C46.5305 56.2007 46.2694 55.9014 45.8021 55.7323C45.8983 54.1186 46.022 52.4659 46.1869 50.8262C45.1287 50.9954 44.0154 51.0475 43.1496 50.8132ZM32.6082 57.1247C33.0342 57.5281 33.0342 58.1918 32.6082 58.5952C32.1821 58.9986 31.4812 58.9986 31.0552 58.5952C30.6291 58.1918 30.6291 57.5281 31.0552 57.1247C31.5362 56.7343 32.1821 56.7343 32.6082 57.1247ZM58.3088 57.1247C58.7349 57.5281 58.7349 58.1918 58.3088 58.5952C57.8828 58.9986 57.1819 58.9986 56.7558 58.5952C56.3298 58.1918 56.3298 57.5281 56.7558 57.1247C57.2368 56.7343 57.8965 56.7343 58.3088 57.1247ZM63.339 58.7643C61.9784 60.5081 60.3292 62.0697 58.4875 63.358L60.0268 64.8285C60.604 64.5422 61.1263 64.1518 61.5936 63.7875C61.8822 64.6203 62.5144 65.5182 63.339 66.299C65.057 67.9257 67.1323 68.5764 67.9981 67.7695C68.8502 66.9497 68.163 64.9847 66.4451 63.358C65.6205 62.5772 64.6722 61.9786 63.7926 61.7053C64.2324 61.2499 64.5622 60.7684 64.8921 60.2218L63.339 58.7643ZM26.0112 58.7643L24.4719 60.2218C24.788 60.7554 25.1729 61.2889 25.5714 61.7053C24.6918 61.9786 23.7435 62.5772 22.9093 63.358C21.1955 64.9847 20.5014 66.9497 21.3563 67.7695C22.2139 68.5894 24.307 67.9257 26.025 66.299C26.8496 65.5182 27.4818 64.6203 27.7704 63.7875C28.2514 64.2039 28.76 64.5162 29.3372 64.8285L30.8765 63.371C29.0211 62.0697 27.3856 60.5211 26.0112 58.7643ZM44.6751 61.8485C45.2798 61.8485 45.7746 62.317 45.7746 62.8896C45.7746 63.4621 45.2798 63.9306 44.6751 63.9306C44.0704 63.9306 43.5756 63.4621 43.5756 62.8896C43.5756 62.317 44.0704 61.8485 44.6751 61.8485ZM41.2392 67.4442V69.5003C41.8577 69.6825 42.5311 69.7736 43.1221 69.8126C42.7098 70.5934 42.4761 71.6475 42.4761 72.7536C42.4761 75.057 43.4657 76.9179 44.6751 76.9179C45.8846 76.9179 46.8741 75.057 46.8741 72.7536C46.8741 71.6475 46.6405 70.5934 46.2282 69.8126C46.8741 69.7866 47.4651 69.6695 48.111 69.5003V67.4312C45.7609 67.7565 43.4245 67.7435 41.2392 67.4442Z" fill="#699BF7"/>
</g>
<defs>
<filter id="filter0_i_8_12" x="9.49133" y="12.372" width="70.3676" height="70.628" filterUnits="userSpaceOnUse" color-interpolation-filters="sRGB">
<feFlood flood-opacity="0" result="BackgroundImageFix"/>
<feBlend mode="normal" in="SourceGraphic" in2="BackgroundImageFix" result="shape"/>
<feColorMatrix in="SourceAlpha" type="matrix" values="0 0 0 0 0 0 0 0 0 0 0 0 0 0 0 0 0 0 127 0" result="hardAlpha"/>
<feOffset dy="4"/>
<feGaussianBlur stdDeviation="2"/>
<feComposite in2="hardAlpha" operator="arithmetic" k2="-1" k3="1"/>
<feColorMatrix type="matrix" values="0 0 0 0 0 0 0 0 0 0 0 0 0 0 0 0 0 0 1 0"/>
<feBlend mode="normal" in2="shape" result="effect1_innerShadow_8_12"/>
</filter>
</defs>
</svg>
